<svg xmlns="http://www.w3.org/2000/svg" id="mermaidChart0" style="max-width:1275px;" viewBox="-75 -10 1275 641" width="100%" height="100%"><style title="mermaid-svg-internal-css" type="text/css">/*  */
.actor { fill: #cde498; stroke: #13540c;}
text.actor { fill: #000; stroke: none;}
.actor-line { stroke: grey;}
.messageLine0 { }
.messageLine0, .messageLine1 { stroke: #333; stroke-width: 1.5;}
#arrowhead { fill: #333;}
#crosshead path { fill: #333 !important; stroke: #333 !important;}
.messageText { fill: #333; stroke: none;}
.labelBox { fill: #cde498; stroke: #326932;}
.labelText, .loopText { fill: #000; stroke: none;}
.loopLine { stroke: #326932; stroke-width: 2;}
* { -webkit-tap-highlight-color: rgba(0, 0, 0, 0);}
*, ::after, ::before { box-sizing: border-box;}
/*  */
</style><g /><g><line class="actor-line" id="actor0" stroke="#999" stroke-width="0.5px" x1="75" y1="5" x2="75" y2="630" /><rect class="actor" fill="#eaeaea" stroke="#666" x="0" y="0" width="150" height="65" rx="3" ry="3" /><text class="actor" style="text-anchor: middle;" alignment-baseline="central" dominant-baseline="central" x="75" y="32.5"><tspan x="75" dy="0">Sensor</tspan></text></g><g><line class="actor-line" id="actor1" stroke="#999" stroke-width="0.5px" x1="275" y1="5" x2="275" y2="630" /><rect class="actor" fill="#eaeaea" stroke="#666" x="200" y="0" width="150" height="65" rx="3" ry="3" /><text class="actor" style="text-anchor: middle;" alignment-baseline="central" dominant-baseline="central" x="275" y="32.5"><tspan x="275" dy="0">Cloud Storage</tspan></text></g><g><line class="actor-line" id="actor2" stroke="#999" stroke-width="0.5px" x1="475" y1="5" x2="475" y2="630" /><rect class="actor" fill="#eaeaea" stroke="#666" x="400" y="0" width="150" height="65" rx="3" ry="3" /><text class="actor" style="text-anchor: middle;" alignment-baseline="central" dominant-baseline="central" x="475" y="32.5"><tspan x="475" dy="0">Kafka</tspan></text></g><g><line class="actor-line" id="actor3" stroke="#999" stroke-width="0.5px" x1="675" y1="5" x2="675" y2="630" /><rect class="actor" fill="#eaeaea" stroke="#666" x="600" y="0" width="150" height="65" rx="3" ry="3" /><text class="actor" style="text-anchor: middle;" alignment-baseline="central" dominant-baseline="central" x="675" y="32.5"><tspan x="675" dy="0">MongoDB</tspan></text></g><g><line class="actor-line" id="actor4" stroke="#999" stroke-width="0.5px" x1="875" y1="5" x2="875" y2="630" /><rect class="actor" fill="#eaeaea" stroke="#666" x="800" y="0" width="150" height="65" rx="3" ry="3" /><text class="actor" style="text-anchor: middle;" alignment-baseline="central" dominant-baseline="central" x="875" y="32.5"><tspan x="875" dy="0">Spark</tspan></text></g><g><line class="actor-line" id="actor5" stroke="#999" stroke-width="0.5px" x1="1075" y1="5" x2="1075" y2="630" /><rect class="actor" fill="#eaeaea" stroke="#666" x="1000" y="0" width="150" height="65" rx="3" ry="3" /><text class="actor" style="text-anchor: middle;" alignment-baseline="central" dominant-baseline="central" x="1075" y="32.5"><tspan x="1075" dy="0">Visualization</tspan></text></g><defs><marker id="arrowhead" refX="5" refY="2" markerWidth="6" markerHeight="4" orient="auto"><path d="M 0 0 V 4 L 6 2 Z" /></marker></defs><defs><marker id="crosshead" refX="16" refY="4" markerWidth="15" markerHeight="8" orient="auto"><path style="stroke-dasharray: 0, 0;" fill="black" stroke="#000000" stroke-width="1px" d="M 9 2 V 6 L 16 4 Z" /><path style="stroke-dasharray: 0, 0;" fill="none" stroke="#000000" stroke-width="1px" d="M 0 1 L 6 7 M 6 1 L 0 7" /></marker></defs><g><text class="messageText" style="text-anchor: middle;" x="75" y="93">Read Radiation</text><path class="messageLine0" style="fill: none;" marker-end="url(&quot;#arrowhead&quot;)" stroke="black" stroke-width="2" d="M 75 100 C 135 90 135 130 75 120" /></g><g><text class="messageText" style="text-anchor: middle;" x="175" y="183">Send Readings</text><line class="messageLine0" style="fill: none;" marker-end="url(&quot;#arrowhead&quot;)" stroke="black" stroke-width="2" x1="75" y1="190" x2="275" y2="190" /></g><g><line class="loopLine" x1="65" y1="140" x2="285" y2="140" /><line class="loopLine" x1="285" y1="140" x2="285" y2="200" /><line class="loopLine" x1="65" y1="200" x2="285" y2="200" /><line class="loopLine" x1="65" y1="140" x2="65" y2="200" /><polygon class="labelBox" points="65,140 115,140 115,153 106.6,160 65,160" /><text class="labelText" fill="black" x="72.5" y="155"><tspan fill="black" x="72.5">opt</tspan></text><text class="loopText" style="text-anchor: middle;" fill="black" x="175" y="155"><tspan fill="black" x="175">[ Online ]</tspan></text></g><g><text class="messageText" style="text-anchor: middle;" x="175" y="253">Manual upload</text><line class="messageLine1" style="fill: none; stroke-dasharray: 3, 3;" marker-end="url(&quot;#crosshead&quot;)" stroke="black" stroke-width="2" x1="75" y1="260" x2="275" y2="260" /></g><g><line class="loopLine" x1="65" y1="210" x2="285" y2="210" /><line class="loopLine" x1="285" y1="210" x2="285" y2="270" /><line class="loopLine" x1="65" y1="270" x2="285" y2="270" /><line class="loopLine" x1="65" y1="210" x2="65" y2="270" /><polygon class="labelBox" points="65,210 115,210 115,223 106.6,230 65,230" /><text class="labelText" fill="black" x="72.5" y="225"><tspan fill="black" x="72.5">opt</tspan></text><text class="loopText" style="text-anchor: middle;" fill="black" x="175" y="225"><tspan fill="black" x="175">[ Offline ]</tspan></text></g><g><text class="messageText" style="text-anchor: middle;" x="375" y="298">Load Readings</text><line class="messageLine1" style="fill: none; stroke-dasharray: 3, 3;" stroke="black" stroke-width="2" x1="475" y1="305" x2="275" y2="305" /></g><g><text class="messageText" style="text-anchor: middle;" x="475" y="333">Expose Stream</text><path class="messageLine0" style="fill: none;" marker-end="url(&quot;#arrowhead&quot;)" stroke="black" stroke-width="2" d="M 475 340 C 535 330 535 370 475 360" /></g><g><text class="messageText" style="text-anchor: middle;" x="575" y="398">Connector /  ETL</text><line class="messageLine0" style="fill: none;" marker-end="url(&quot;#arrowhead&quot;)" stroke="black" stroke-width="2" x1="475" y1="405" x2="675" y2="405" /></g><g><text class="messageText" style="text-anchor: middle;" x="675" y="433">Real Time Analytics</text><line class="messageLine1" style="fill: none; stroke-dasharray: 3, 3;" marker-end="url(&quot;#arrowhead&quot;)" stroke="black" stroke-width="2" x1="875" y1="440" x2="475" y2="440" /></g><g><text class="messageText" style="text-anchor: middle;" x="775" y="468">Cold Path Analytics</text><line class="messageLine1" style="fill: none; stroke-dasharray: 3, 3;" marker-end="url(&quot;#arrowhead&quot;)" stroke="black" stroke-width="2" x1="875" y1="475" x2="675" y2="475" /></g><g><text class="messageText" style="text-anchor: middle;" x="775" y="503">Save Learned Results</text><line class="messageLine1" style="fill: none; stroke-dasharray: 3, 3;" marker-end="url(&quot;#crosshead&quot;)" stroke="black" stroke-width="2" x1="875" y1="510" x2="675" y2="510" /></g><g><text class="messageText" style="text-anchor: middle;" x="875" y="538">Read / Display</text><line class="messageLine1" style="fill: none; stroke-dasharray: 3, 3;" marker-end="url(&quot;#crosshead&quot;)" stroke="black" stroke-width="2" x1="675" y1="545" x2="1075" y2="545" /></g><g><rect class="actor" fill="#eaeaea" stroke="#666" x="0" y="565" width="150" height="65" rx="3" ry="3" /><text class="actor" style="text-anchor: middle;" alignment-baseline="central" dominant-baseline="central" x="75" y="597.5"><tspan x="75" dy="0">Sensor</tspan></text></g><g><rect class="actor" fill="#eaeaea" stroke="#666" x="200" y="565" width="150" height="65" rx="3" ry="3" /><text class="actor" style="text-anchor: middle;" alignment-baseline="central" dominant-baseline="central" x="275" y="597.5"><tspan x="275" dy="0">Cloud Storage</tspan></text></g><g><rect class="actor" fill="#eaeaea" stroke="#666" x="400" y="565" width="150" height="65" rx="3" ry="3" /><text class="actor" style="text-anchor: middle;" alignment-baseline="central" dominant-baseline="central" x="475" y="597.5"><tspan x="475" dy="0">Kafka</tspan></text></g><g><rect class="actor" fill="#eaeaea" stroke="#666" x="600" y="565" width="150" height="65" rx="3" ry="3" /><text class="actor" style="text-anchor: middle;" alignment-baseline="central" dominant-baseline="central" x="675" y="597.5"><tspan x="675" dy="0">MongoDB</tspan></text></g><g><rect class="actor" fill="#eaeaea" stroke="#666" x="800" y="565" width="150" height="65" rx="3" ry="3" /><text class="actor" style="text-anchor: middle;" alignment-baseline="central" dominant-baseline="central" x="875" y="597.5"><tspan x="875" dy="0">Spark</tspan></text></g><g><rect class="actor" fill="#eaeaea" stroke="#666" x="1000" y="565" width="150" height="65" rx="3" ry="3" /><text class="actor" style="text-anchor: middle;" alignment-baseline="central" dominant-baseline="central" x="1075" y="597.5"><tspan x="1075" dy="0">Visualization</tspan></text></g></svg>